<!DOCTYPE svg PUBLIC "-//W3C//DTD SVG 1.1//EN" "http://www.w3.org/Graphics/SVG/1.1/DTD/svg11.dtd">
<svg xmlns="http://www.w3.org/2000/svg" xmlns:xlink="http://www.w3.org/1999/xlink" xmlns:jfreesvg="http://www.jfree.org/jfreesvg/svg" width="256" height="254" text-rendering="auto" shape-rendering="auto">
<defs></defs>
<g style="stroke-width: 1.0;stroke: rgb(255,0,0);stroke-opacity: 1.0;stroke-linecap: square;; fill: none" transform="matrix(1,0,0,1,189,6)" ><path d="M 11 1 L 13 1 L 13 2 L 14 2 L 14 3 L 16 3 L 16 4 L 17 4 L 17 5 L 18 5 L 18 11 L 17 11 L 17 14 L 16 14 L 16 16 L 15 16 L 15 17 L 14 17 L 14 18 L 13 18 L 13 19 L 11 19 L 11 20 L 8 20 L 8 21 L 5 21 L 5 20 L 4 20 L 4 19 L 3 19 L 3 18 L 2 18 L 2 16 L 1 16 L 1 15 L 0 15 L 0 7 L 1 7 L 1 4 L 2 4 L 2 3 L 3 3 L 3 2 L 5 2 L 5 1 L 8 1 L 8 0 L 11 0 Z "/></g><g style="stroke-width: 1.0;stroke: rgb(255,0,0);stroke-opacity: 1.0;stroke-linecap: square;; fill: none" transform="matrix(1,0,0,1,133,17)" ><path d="M 7 1 L 9 1 L 9 8 L 8 8 L 8 9 L 7 9 L 7 10 L 5 10 L 5 11 L 3 11 L 3 10 L 1 10 L 1 9 L 0 9 L 0 3 L 1 3 L 1 1 L 3 1 L 3 0 L 7 0 Z "/></g><g style="stroke-width: 1.0;stroke: rgb(255,0,0);stroke-opacity: 1.0;stroke-linecap: square;; fill: none" transform="matrix(1,0,0,1,211,17)" ><path d="M 12 1 L 14 1 L 14 7 L 15 7 L 15 8 L 16 8 L 16 12 L 17 12 L 17 14 L 16 14 L 16 17 L 15 17 L 15 18 L 14 18 L 14 20 L 12 20 L 12 21 L 10 21 L 10 22 L 5 22 L 5 21 L 4 21 L 4 20 L 2 20 L 2 19 L 1 19 L 1 14 L 0 14 L 0 9 L 1 9 L 1 7 L 2 7 L 2 5 L 3 5 L 3 3 L 4 3 L 4 2 L 5 2 L 5 1 L 7 1 L 7 0 L 12 0 Z "/></g><g style="stroke-width: 1.0;stroke: rgb(255,0,0);stroke-opacity: 1.0;stroke-linecap: square;; fill: none" transform="matrix(1,0,0,1,37,18)" ><path d="M 12 1 L 14 1 L 14 2 L 15 2 L 15 4 L 16 4 L 16 11 L 15 11 L 15 13 L 14 13 L 14 15 L 13 15 L 13 16 L 12 16 L 12 17 L 10 17 L 10 18 L 6 18 L 6 17 L 4 17 L 4 16 L 2 16 L 2 14 L 1 14 L 1 10 L 0 10 L 0 5 L 1 5 L 1 3 L 2 3 L 2 2 L 3 2 L 3 1 L 5 1 L 5 0 L 12 0 Z "/></g><g style="stroke-width: 1.0;stroke: rgb(255,0,0);stroke-opacity: 1.0;stroke-linecap: square;; fill: none" transform="matrix(1,0,0,1,162,21)" ><path d="M 14 1 L 20 1 L 20 2 L 21 2 L 21 3 L 22 3 L 22 5 L 23 5 L 23 6 L 24 6 L 24 8 L 25 8 L 25 14 L 24 14 L 24 17 L 23 17 L 23 18 L 22 18 L 22 20 L 21 20 L 21 21 L 20 21 L 20 23 L 19 23 L 19 24 L 18 24 L 18 25 L 16 25 L 16 26 L 9 26 L 9 25 L 7 25 L 7 24 L 5 24 L 5 22 L 4 22 L 4 21 L 3 21 L 3 20 L 2 20 L 2 18 L 1 18 L 1 17 L 0 17 L 0 10 L 1 10 L 1 7 L 2 7 L 2 6 L 3 6 L 3 4 L 4 4 L 4 3 L 5 3 L 5 2 L 6 2 L 6 1 L 8 1 L 8 0 L 14 0 Z "/></g><g style="stroke-width: 1.0;stroke: rgb(255,0,0);stroke-opacity: 1.0;stroke-linecap: square;; fill: none" transform="matrix(1,0,0,1,59,26)" ><path d="M 24 1 L 25 1 L 25 3 L 26 3 L 26 5 L 27 5 L 27 7 L 28 7 L 28 10 L 27 10 L 27 13 L 28 13 L 28 21 L 27 21 L 27 23 L 26 23 L 26 24 L 24 24 L 24 25 L 23 25 L 23 27 L 21 27 L 21 28 L 19 28 L 19 29 L 17 29 L 17 30 L 16 30 L 16 31 L 8 31 L 8 30 L 6 30 L 6 29 L 5 29 L 5 28 L 3 28 L 3 27 L 2 27 L 2 26 L 1 26 L 1 24 L 0 24 L 0 19 L 1 19 L 1 17 L 2 17 L 2 14 L 3 14 L 3 12 L 4 12 L 4 10 L 5 10 L 5 8 L 6 8 L 6 6 L 7 6 L 7 5 L 8 5 L 8 4 L 9 4 L 9 3 L 10 3 L 10 2 L 12 2 L 12 1 L 16 1 L 16 0 L 24 0 Z "/></g><g style="stroke-width: 1.0;stroke: rgb(255,0,0);stroke-opacity: 1.0;stroke-linecap: square;; fill: none" transform="matrix(1,0,0,1,3,39)" ><path d="M 8 1 L 9 1 L 9 2 L 10 2 L 10 9 L 9 9 L 9 11 L 8 11 L 8 12 L 2 12 L 2 11 L 1 11 L 1 10 L 0 10 L 0 5 L 1 5 L 1 3 L 2 3 L 2 2 L 3 2 L 3 1 L 4 1 L 4 0 L 8 0 Z "/></g><g style="stroke-width: 1.0;stroke: rgb(255,0,0);stroke-opacity: 1.0;stroke-linecap: square;; fill: none" transform="matrix(1,0,0,1,225,39)" ><path d="M 13 1 L 14 1 L 14 2 L 15 2 L 15 3 L 16 3 L 16 13 L 15 13 L 15 15 L 14 15 L 14 16 L 13 16 L 13 17 L 11 17 L 11 18 L 6 18 L 6 17 L 4 17 L 4 14 L 3 14 L 3 13 L 2 13 L 2 11 L 1 11 L 1 10 L 0 10 L 0 5 L 1 5 L 1 4 L 2 4 L 2 3 L 3 3 L 3 2 L 4 2 L 4 1 L 6 1 L 6 0 L 13 0 Z "/></g><g style="stroke-width: 1.0;stroke: rgb(255,0,0);stroke-opacity: 1.0;stroke-linecap: square;; fill: none" transform="matrix(1,0,0,1,128,42)" ><path d="M 14 1 L 16 1 L 16 2 L 17 2 L 17 4 L 18 4 L 18 5 L 19 5 L 19 6 L 20 6 L 20 8 L 21 8 L 21 10 L 22 10 L 22 17 L 21 17 L 21 20 L 20 20 L 20 22 L 19 22 L 19 23 L 18 23 L 18 24 L 17 24 L 17 25 L 16 25 L 16 26 L 9 26 L 9 25 L 6 25 L 6 24 L 4 24 L 4 23 L 3 23 L 3 22 L 2 22 L 2 20 L 1 20 L 1 16 L 0 16 L 0 12 L 1 12 L 1 6 L 2 6 L 2 4 L 3 4 L 3 3 L 4 3 L 4 2 L 6 2 L 6 1 L 9 1 L 9 0 L 14 0 Z "/></g><g style="stroke-width: 1.0;stroke: rgb(255,0,0);stroke-opacity: 1.0;stroke-linecap: square;; fill: none" transform="matrix(1,0,0,1,184,43)" ><path d="M 19 1 L 20 1 L 20 6 L 21 6 L 21 11 L 20 11 L 20 14 L 19 14 L 19 16 L 18 16 L 18 18 L 17 18 L 17 20 L 16 20 L 16 24 L 15 24 L 15 28 L 14 28 L 14 29 L 13 29 L 13 30 L 12 30 L 12 31 L 11 31 L 11 32 L 9 32 L 9 33 L 6 33 L 6 32 L 5 32 L 5 31 L 4 31 L 4 30 L 3 30 L 3 29 L 1 29 L 1 27 L 0 27 L 0 23 L 1 23 L 1 21 L 2 21 L 2 19 L 3 19 L 3 17 L 4 17 L 4 16 L 5 16 L 5 15 L 6 15 L 6 13 L 7 13 L 7 11 L 8 11 L 8 8 L 9 8 L 9 4 L 10 4 L 10 3 L 11 3 L 11 2 L 12 2 L 12 1 L 14 1 L 14 0 L 19 0 Z "/></g><g style="stroke-width: 1.0;stroke: rgb(255,0,0);stroke-opacity: 1.0;stroke-linecap: square;; fill: none" transform="matrix(1,0,0,1,17,44)" ><path d="M 15 1 L 17 1 L 17 2 L 18 2 L 18 3 L 20 3 L 20 4 L 21 4 L 21 5 L 22 5 L 22 6 L 23 6 L 23 7 L 24 7 L 24 15 L 23 15 L 23 19 L 22 19 L 22 21 L 21 21 L 21 23 L 20 23 L 20 24 L 19 24 L 19 25 L 18 25 L 18 26 L 15 26 L 15 27 L 11 27 L 11 28 L 8 28 L 8 27 L 6 27 L 6 26 L 4 26 L 4 25 L 3 25 L 3 24 L 2 24 L 2 23 L 1 23 L 1 21 L 0 21 L 0 12 L 1 12 L 1 9 L 2 9 L 2 7 L 3 7 L 3 5 L 4 5 L 4 4 L 5 4 L 5 2 L 7 2 L 7 1 L 10 1 L 10 0 L 15 0 Z "/></g><g style="stroke-width: 1.0;stroke: rgb(255,0,0);stroke-opacity: 1.0;stroke-linecap: square;; fill: none" transform="matrix(1,0,0,1,89,60)" ><path d="M 15 1 L 18 1 L 18 2 L 19 2 L 19 4 L 20 4 L 20 16 L 19 16 L 19 20 L 18 20 L 18 22 L 17 22 L 17 23 L 16 23 L 16 24 L 15 24 L 15 25 L 14 25 L 14 26 L 12 26 L 12 27 L 7 27 L 7 26 L 4 26 L 4 25 L 3 25 L 3 24 L 2 24 L 2 23 L 1 23 L 1 21 L 0 21 L 0 17 L 1 17 L 1 16 L 0 16 L 0 12 L 1 12 L 1 10 L 2 10 L 2 8 L 3 8 L 3 7 L 4 7 L 4 5 L 5 5 L 5 4 L 6 4 L 6 3 L 7 3 L 7 2 L 8 2 L 8 1 L 10 1 L 10 0 L 15 0 Z "/></g><g style="stroke-width: 1.0;stroke: rgb(255,0,0);stroke-opacity: 1.0;stroke-linecap: square;; fill: none" transform="matrix(1,0,0,1,206,60)" ><path d="M 11 1 L 13 1 L 13 2 L 14 2 L 14 3 L 15 3 L 15 4 L 16 4 L 16 6 L 17 6 L 17 12 L 16 12 L 16 16 L 15 16 L 15 18 L 14 18 L 14 19 L 12 19 L 12 20 L 11 20 L 11 21 L 7 21 L 7 22 L 6 22 L 6 21 L 4 21 L 4 20 L 2 20 L 2 19 L 1 19 L 1 17 L 0 17 L 0 15 L 1 15 L 1 8 L 2 8 L 2 5 L 3 5 L 3 4 L 4 4 L 4 3 L 5 3 L 5 2 L 6 2 L 6 1 L 9 1 L 9 0 L 11 0 Z "/></g><g style="stroke-width: 1.0;stroke: rgb(255,0,0);stroke-opacity: 1.0;stroke-linecap: square;; fill: none" transform="matrix(1,0,0,1,162,65)" ><path d="M 7 1 L 9 1 L 9 2 L 11 2 L 11 3 L 12 3 L 12 5 L 13 5 L 13 9 L 12 9 L 12 11 L 11 11 L 11 13 L 10 13 L 10 14 L 9 14 L 9 15 L 7 15 L 7 16 L 3 16 L 3 15 L 1 15 L 1 14 L 0 14 L 0 4 L 1 4 L 1 3 L 2 3 L 2 2 L 3 2 L 3 1 L 6 1 L 6 0 L 7 0 Z "/></g><g style="stroke-width: 1.0;stroke: rgb(255,0,0);stroke-opacity: 1.0;stroke-linecap: square;; fill: none" transform="matrix(1,0,0,1,53,73)" ><path d="M 17 1 L 18 1 L 18 2 L 19 2 L 19 4 L 20 4 L 20 5 L 21 5 L 21 6 L 22 6 L 22 13 L 21 13 L 21 18 L 20 18 L 20 20 L 19 20 L 19 21 L 18 21 L 18 22 L 17 22 L 17 23 L 14 23 L 14 24 L 12 24 L 12 23 L 7 23 L 7 22 L 6 22 L 6 20 L 4 20 L 4 19 L 3 19 L 3 18 L 2 18 L 2 16 L 1 16 L 1 13 L 0 13 L 0 8 L 1 8 L 1 6 L 2 6 L 2 4 L 3 4 L 3 2 L 5 2 L 5 1 L 7 1 L 7 0 L 17 0 Z "/></g><g style="stroke-width: 1.0;stroke: rgb(255,0,0);stroke-opacity: 1.0;stroke-linecap: square;; fill: none" transform="matrix(1,0,0,1,117,75)" ><path d="M 10 1 L 12 1 L 12 2 L 15 2 L 15 3 L 17 3 L 17 2 L 20 2 L 20 1 L 22 1 L 22 0 L 27 0 L 27 1 L 28 1 L 28 2 L 29 2 L 29 5 L 30 5 L 30 8 L 29 8 L 29 10 L 28 10 L 28 11 L 27 11 L 27 12 L 22 12 L 22 13 L 19 13 L 19 14 L 17 14 L 17 15 L 16 15 L 16 16 L 15 16 L 15 17 L 14 17 L 14 18 L 13 18 L 13 19 L 12 19 L 12 20 L 10 20 L 10 21 L 7 21 L 7 20 L 4 20 L 4 19 L 2 19 L 2 17 L 1 17 L 1 15 L 0 15 L 0 7 L 1 7 L 1 4 L 2 4 L 2 3 L 3 3 L 3 2 L 4 2 L 4 1 L 6 1 L 6 0 L 10 0 Z "/></g><g style="stroke-width: 1.0;stroke: rgb(255,0,0);stroke-opacity: 1.0;stroke-linecap: square;; fill: none" transform="matrix(1,0,0,1,25,77)" ><path d="M 13 1 L 14 1 L 14 2 L 15 2 L 15 4 L 16 4 L 16 5 L 17 5 L 17 8 L 18 8 L 18 12 L 17 12 L 17 15 L 16 15 L 16 16 L 15 16 L 15 17 L 14 17 L 14 18 L 12 18 L 12 19 L 5 19 L 5 18 L 4 18 L 4 17 L 3 17 L 3 16 L 2 16 L 2 14 L 1 14 L 1 12 L 0 12 L 0 11 L 1 11 L 1 8 L 2 8 L 2 3 L 3 3 L 3 2 L 4 2 L 4 1 L 6 1 L 6 0 L 13 0 Z "/></g><g style="stroke-width: 1.0;stroke: rgb(255,0,0);stroke-opacity: 1.0;stroke-linecap: square;; fill: none" transform="matrix(1,0,0,1,213,85)" ><path d="M 12 1 L 15 1 L 15 2 L 17 2 L 17 4 L 18 4 L 18 5 L 19 5 L 19 14 L 18 14 L 18 16 L 17 16 L 17 17 L 15 17 L 15 19 L 13 19 L 13 20 L 6 20 L 6 19 L 4 19 L 4 18 L 3 18 L 3 17 L 2 17 L 2 15 L 1 15 L 1 13 L 0 13 L 0 11 L 1 11 L 1 8 L 2 8 L 2 6 L 3 6 L 3 5 L 4 5 L 4 3 L 5 3 L 5 2 L 6 2 L 6 1 L 9 1 L 9 0 L 12 0 Z "/></g><g style="stroke-width: 1.0;stroke: rgb(255,0,0);stroke-opacity: 1.0;stroke-linecap: square;; fill: none" transform="matrix(1,0,0,1,157,87)" ><path d="M 22 1 L 25 1 L 25 2 L 30 2 L 30 3 L 32 3 L 32 5 L 33 5 L 33 7 L 34 7 L 34 18 L 33 18 L 33 21 L 32 21 L 32 22 L 31 22 L 31 24 L 30 24 L 30 25 L 29 25 L 29 26 L 28 26 L 28 27 L 21 27 L 21 26 L 20 26 L 20 25 L 18 25 L 18 24 L 17 24 L 17 23 L 16 23 L 16 22 L 15 22 L 15 21 L 13 21 L 13 20 L 6 20 L 6 19 L 3 19 L 3 18 L 2 18 L 2 17 L 1 17 L 1 16 L 0 16 L 0 12 L 1 12 L 1 5 L 2 5 L 2 4 L 3 4 L 3 3 L 4 3 L 4 2 L 6 2 L 6 1 L 11 1 L 11 2 L 14 2 L 14 3 L 16 3 L 16 2 L 19 2 L 19 1 L 21 1 L 21 0 L 22 0 Z "/></g><g style="stroke-width: 1.0;stroke: rgb(255,0,0);stroke-opacity: 1.0;stroke-linecap: square;; fill: none" transform="matrix(1,0,0,1,92,102)" ><path d="M 13 1 L 16 1 L 16 2 L 18 2 L 18 3 L 20 3 L 20 4 L 21 4 L 21 5 L 22 5 L 22 7 L 23 7 L 23 14 L 22 14 L 22 16 L 20 16 L 20 17 L 19 17 L 19 18 L 17 18 L 17 19 L 11 19 L 11 20 L 9 20 L 9 19 L 6 19 L 6 18 L 4 18 L 4 17 L 3 17 L 3 16 L 2 16 L 2 15 L 1 15 L 1 14 L 0 14 L 0 6 L 1 6 L 1 4 L 2 4 L 2 3 L 3 3 L 3 2 L 4 2 L 4 1 L 7 1 L 7 0 L 13 0 Z "/></g><g style="stroke-width: 1.0;stroke: rgb(255,0,0);stroke-opacity: 1.0;stroke-linecap: square;; fill: none" transform="matrix(1,0,0,1,25,108)" ><path d="M 16 1 L 19 1 L 19 2 L 21 2 L 21 3 L 22 3 L 22 5 L 23 5 L 23 9 L 24 9 L 24 20 L 23 20 L 23 22 L 22 22 L 22 23 L 21 23 L 21 25 L 20 25 L 20 26 L 19 26 L 19 27 L 18 27 L 18 28 L 16 28 L 16 29 L 15 29 L 15 30 L 10 30 L 10 29 L 9 29 L 9 28 L 8 28 L 8 26 L 5 26 L 5 25 L 4 25 L 4 24 L 3 24 L 3 23 L 2 23 L 2 22 L 1 22 L 1 20 L 0 20 L 0 12 L 1 12 L 1 10 L 2 10 L 2 9 L 3 9 L 3 7 L 4 7 L 4 5 L 5 5 L 5 4 L 6 4 L 6 3 L 7 3 L 7 2 L 9 2 L 9 1 L 13 1 L 13 0 L 16 0 Z "/></g><g style="stroke-width: 1.0;stroke: rgb(255,0,0);stroke-opacity: 1.0;stroke-linecap: square;; fill: none" transform="matrix(1,0,0,1,113,109)" ><path d="M 24 1 L 25 1 L 25 6 L 26 6 L 26 7 L 27 7 L 27 16 L 26 16 L 26 18 L 25 18 L 25 20 L 24 20 L 24 21 L 23 21 L 23 23 L 21 23 L 21 24 L 20 24 L 20 25 L 19 25 L 19 26 L 18 26 L 18 30 L 17 30 L 17 34 L 16 34 L 16 36 L 15 36 L 15 38 L 14 38 L 14 39 L 13 39 L 13 40 L 11 40 L 11 41 L 4 41 L 4 40 L 3 40 L 3 39 L 1 39 L 1 37 L 0 37 L 0 29 L 1 29 L 1 27 L 2 27 L 2 26 L 3 26 L 3 25 L 4 25 L 4 24 L 6 24 L 6 23 L 7 23 L 7 22 L 9 22 L 9 20 L 10 20 L 10 7 L 11 7 L 11 5 L 12 5 L 12 4 L 14 4 L 14 3 L 15 3 L 15 2 L 16 2 L 16 1 L 20 1 L 20 0 L 24 0 Z "/></g><g style="stroke-width: 1.0;stroke: rgb(255,0,0);stroke-opacity: 1.0;stroke-linecap: square;; fill: none" transform="matrix(1,0,0,1,151,114)" ><path d="M 11 1 L 12 1 L 12 2 L 14 2 L 14 3 L 16 3 L 16 4 L 17 4 L 17 11 L 18 11 L 18 13 L 20 13 L 20 14 L 23 14 L 23 15 L 26 15 L 26 16 L 27 16 L 27 17 L 28 17 L 28 22 L 29 22 L 29 30 L 28 30 L 28 31 L 27 31 L 27 32 L 26 32 L 26 33 L 24 33 L 24 34 L 21 34 L 21 35 L 18 35 L 18 36 L 15 36 L 15 35 L 13 35 L 13 34 L 11 34 L 11 33 L 10 33 L 10 31 L 9 31 L 9 28 L 8 28 L 8 24 L 7 24 L 7 22 L 6 22 L 6 20 L 5 20 L 5 18 L 3 18 L 3 17 L 2 17 L 2 15 L 1 15 L 1 13 L 0 13 L 0 6 L 1 6 L 1 4 L 2 4 L 2 2 L 4 2 L 4 1 L 6 1 L 6 0 L 11 0 Z "/></g><g style="stroke-width: 1.0;stroke: rgb(255,0,0);stroke-opacity: 1.0;stroke-linecap: square;; fill: none" transform="matrix(1,0,0,1,56,115)" ><path d="M 9 1 L 11 1 L 11 2 L 12 2 L 12 3 L 13 3 L 13 4 L 14 4 L 14 7 L 15 7 L 15 10 L 14 10 L 14 13 L 13 13 L 13 14 L 12 14 L 12 15 L 10 15 L 10 16 L 8 16 L 8 17 L 4 17 L 4 16 L 3 16 L 3 15 L 2 15 L 2 13 L 1 13 L 1 12 L 0 12 L 0 6 L 1 6 L 1 2 L 2 2 L 2 1 L 4 1 L 4 0 L 9 0 Z "/></g><g style="stroke-width: 1.0;stroke: rgb(255,0,0);stroke-opacity: 1.0;stroke-linecap: square;; fill: none" transform="matrix(1,0,0,1,211,115)" ><path d="M 18 1 L 20 1 L 20 2 L 21 2 L 21 3 L 22 3 L 22 4 L 24 4 L 24 5 L 25 5 L 25 6 L 26 6 L 26 7 L 27 7 L 27 10 L 28 10 L 28 17 L 27 17 L 27 19 L 26 19 L 26 20 L 25 20 L 25 21 L 24 21 L 24 22 L 23 22 L 23 23 L 22 23 L 22 24 L 20 24 L 20 25 L 18 25 L 18 26 L 14 26 L 14 25 L 5 25 L 5 24 L 4 24 L 4 23 L 3 23 L 3 22 L 2 22 L 2 21 L 1 21 L 1 19 L 0 19 L 0 8 L 1 8 L 1 6 L 2 6 L 2 4 L 3 4 L 3 2 L 4 2 L 4 1 L 6 1 L 6 0 L 18 0 Z "/></g><g style="stroke-width: 1.0;stroke: rgb(255,0,0);stroke-opacity: 1.0;stroke-linecap: square;; fill: none" transform="matrix(1,0,0,1,75,137)" ><path d="M 23 1 L 24 1 L 24 3 L 25 3 L 25 4 L 26 4 L 26 6 L 27 6 L 27 11 L 26 11 L 26 18 L 25 18 L 25 21 L 24 21 L 24 25 L 25 25 L 25 32 L 24 32 L 24 35 L 23 35 L 23 40 L 22 40 L 22 42 L 21 42 L 21 44 L 20 44 L 20 45 L 19 45 L 19 46 L 18 46 L 18 47 L 17 47 L 17 48 L 16 48 L 16 49 L 11 49 L 11 50 L 8 50 L 8 49 L 5 49 L 5 48 L 4 48 L 4 47 L 3 47 L 3 45 L 2 45 L 2 43 L 1 43 L 1 41 L 0 41 L 0 36 L 1 36 L 1 34 L 2 34 L 2 32 L 3 32 L 3 29 L 4 29 L 4 28 L 5 28 L 5 26 L 6 26 L 6 24 L 7 24 L 7 22 L 8 22 L 8 16 L 7 16 L 7 13 L 8 13 L 8 10 L 9 10 L 9 6 L 10 6 L 10 4 L 11 4 L 11 3 L 12 3 L 12 2 L 13 2 L 13 1 L 14 1 L 14 0 L 23 0 Z "/></g><g style="stroke-width: 1.0;stroke: rgb(255,0,0);stroke-opacity: 1.0;stroke-linecap: square;; fill: none" transform="matrix(1,0,0,1,59,138)" ><path d="M 13 1 L 14 1 L 14 2 L 15 2 L 15 4 L 16 4 L 16 12 L 15 12 L 15 15 L 14 15 L 14 16 L 13 16 L 13 17 L 12 17 L 12 18 L 10 18 L 10 19 L 6 19 L 6 18 L 4 18 L 4 16 L 3 16 L 3 15 L 2 15 L 2 14 L 1 14 L 1 13 L 0 13 L 0 8 L 1 8 L 1 5 L 2 5 L 2 3 L 3 3 L 3 2 L 4 2 L 4 1 L 6 1 L 6 0 L 13 0 Z "/></g><g style="stroke-width: 1.0;stroke: rgb(255,0,0);stroke-opacity: 1.0;stroke-linecap: square;; fill: none" transform="matrix(1,0,0,1,182,149)" ><path d="M 11 1 L 12 1 L 12 2 L 13 2 L 13 9 L 12 9 L 12 13 L 11 13 L 11 14 L 10 14 L 10 15 L 8 15 L 8 16 L 4 16 L 4 15 L 2 15 L 2 13 L 1 13 L 1 12 L 0 12 L 0 6 L 1 6 L 1 3 L 2 3 L 2 2 L 4 2 L 4 1 L 6 1 L 6 0 L 11 0 Z "/></g><g style="stroke-width: 1.0;stroke: rgb(255,0,0);stroke-opacity: 1.0;stroke-linecap: square;; fill: none" transform="matrix(1,0,0,1,125,152)" ><path d="M 20 1 L 21 1 L 21 2 L 22 2 L 22 3 L 23 3 L 23 15 L 22 15 L 22 16 L 21 16 L 21 18 L 19 18 L 19 19 L 18 19 L 18 20 L 15 20 L 15 21 L 13 21 L 13 22 L 10 22 L 10 23 L 4 23 L 4 22 L 2 22 L 2 20 L 1 20 L 1 18 L 0 18 L 0 11 L 1 11 L 1 9 L 2 9 L 2 8 L 3 8 L 3 7 L 4 7 L 4 5 L 5 5 L 5 4 L 6 4 L 6 3 L 7 3 L 7 2 L 9 2 L 9 1 L 13 1 L 13 0 L 20 0 Z "/></g><g style="stroke-width: 1.0;stroke: rgb(255,0,0);stroke-opacity: 1.0;stroke-linecap: square;; fill: none" transform="matrix(1,0,0,1,5,157)" ><path d="M 18 1 L 19 1 L 19 2 L 20 2 L 20 4 L 21 4 L 21 6 L 22 6 L 22 9 L 23 9 L 23 10 L 22 10 L 22 15 L 21 15 L 21 18 L 20 18 L 20 20 L 19 20 L 19 21 L 17 21 L 17 22 L 16 22 L 16 23 L 15 23 L 15 24 L 8 24 L 8 23 L 4 23 L 4 22 L 2 22 L 2 20 L 1 20 L 1 18 L 0 18 L 0 16 L 1 16 L 1 11 L 2 11 L 2 8 L 3 8 L 3 6 L 4 6 L 4 5 L 5 5 L 5 4 L 6 4 L 6 2 L 7 2 L 7 1 L 10 1 L 10 0 L 18 0 Z "/></g><g style="stroke-width: 1.0;stroke: rgb(255,0,0);stroke-opacity: 1.0;stroke-linecap: square;; fill: none" transform="matrix(1,0,0,1,205,157)" ><path d="M 10 1 L 14 1 L 14 2 L 16 2 L 16 4 L 17 4 L 17 13 L 16 13 L 16 16 L 15 16 L 15 17 L 14 17 L 14 18 L 13 18 L 13 19 L 7 19 L 7 18 L 4 18 L 4 17 L 3 17 L 3 16 L 2 16 L 2 13 L 1 13 L 1 12 L 0 12 L 0 10 L 1 10 L 1 6 L 2 6 L 2 5 L 3 5 L 3 4 L 4 4 L 4 3 L 5 3 L 5 2 L 7 2 L 7 1 L 9 1 L 9 0 L 10 0 Z "/></g><g style="stroke-width: 1.0;stroke: rgb(255,0,0);stroke-opacity: 1.0;stroke-linecap: square;; fill: none" transform="matrix(1,0,0,1,35,160)" ><path d="M 13 1 L 14 1 L 14 2 L 15 2 L 15 3 L 16 3 L 16 4 L 17 4 L 17 5 L 18 5 L 18 8 L 19 8 L 19 18 L 18 18 L 18 20 L 17 20 L 17 22 L 16 22 L 16 23 L 15 23 L 15 24 L 4 24 L 4 23 L 3 23 L 3 20 L 2 20 L 2 19 L 1 19 L 1 13 L 0 13 L 0 7 L 1 7 L 1 4 L 2 4 L 2 3 L 4 3 L 4 2 L 5 2 L 5 1 L 8 1 L 8 0 L 13 0 Z "/></g><g style="stroke-width: 1.0;stroke: rgb(255,0,0);stroke-opacity: 1.0;stroke-linecap: square;; fill: none" transform="matrix(1,0,0,1,167,167)" ><path d="M 18 1 L 19 1 L 19 2 L 21 2 L 21 4 L 22 4 L 22 5 L 23 5 L 23 6 L 24 6 L 24 8 L 25 8 L 25 14 L 26 14 L 26 16 L 27 16 L 27 21 L 26 21 L 26 22 L 25 22 L 25 24 L 24 24 L 24 25 L 23 25 L 23 27 L 22 27 L 22 28 L 21 28 L 21 29 L 6 29 L 6 28 L 3 28 L 3 27 L 2 27 L 2 25 L 1 25 L 1 24 L 0 24 L 0 9 L 1 9 L 1 7 L 2 7 L 2 5 L 3 5 L 3 4 L 4 4 L 4 3 L 5 3 L 5 2 L 6 2 L 6 1 L 8 1 L 8 0 L 18 0 Z "/></g><g style="stroke-width: 1.0;stroke: rgb(255,0,0);stroke-opacity: 1.0;stroke-linecap: square;; fill: none" transform="matrix(1,0,0,1,222,174)" ><path d="M 18 1 L 19 1 L 19 2 L 20 2 L 20 4 L 21 4 L 21 7 L 22 7 L 22 15 L 21 15 L 21 17 L 20 17 L 20 18 L 19 18 L 19 19 L 18 19 L 18 20 L 16 20 L 16 21 L 12 21 L 12 22 L 6 22 L 6 21 L 5 21 L 5 20 L 3 20 L 3 19 L 2 19 L 2 17 L 1 17 L 1 14 L 0 14 L 0 12 L 1 12 L 1 7 L 2 7 L 2 6 L 3 6 L 3 5 L 4 5 L 4 4 L 5 4 L 5 3 L 6 3 L 6 2 L 8 2 L 8 1 L 10 1 L 10 0 L 18 0 Z "/></g><g style="stroke-width: 1.0;stroke: rgb(255,0,0);stroke-opacity: 1.0;stroke-linecap: square;; fill: none" transform="matrix(1,0,0,1,117,185)" ><path d="M 18 1 L 21 1 L 21 2 L 23 2 L 23 3 L 25 3 L 25 4 L 26 4 L 26 6 L 27 6 L 27 17 L 26 17 L 26 19 L 25 19 L 25 22 L 24 22 L 24 23 L 23 23 L 23 24 L 22 24 L 22 25 L 19 25 L 19 26 L 12 26 L 12 25 L 7 25 L 7 24 L 5 24 L 5 23 L 4 23 L 4 21 L 3 21 L 3 19 L 2 19 L 2 17 L 1 17 L 1 16 L 0 16 L 0 8 L 1 8 L 1 6 L 2 6 L 2 4 L 3 4 L 3 3 L 4 3 L 4 2 L 6 2 L 6 1 L 11 1 L 11 0 L 18 0 Z "/></g><g style="stroke-width: 1.0;stroke: rgb(255,0,0);stroke-opacity: 1.0;stroke-linecap: square;; fill: none" transform="matrix(1,0,0,1,200,195)" ><path d="M 9 1 L 11 1 L 11 2 L 12 2 L 12 4 L 13 4 L 13 9 L 12 9 L 12 13 L 11 13 L 11 14 L 10 14 L 10 15 L 9 15 L 9 16 L 7 16 L 7 17 L 4 17 L 4 16 L 2 16 L 2 15 L 1 15 L 1 13 L 0 13 L 0 6 L 1 6 L 1 4 L 2 4 L 2 3 L 3 3 L 3 2 L 4 2 L 4 1 L 5 1 L 5 0 L 9 0 Z "/></g><g style="stroke-width: 1.0;stroke: rgb(255,0,0);stroke-opacity: 1.0;stroke-linecap: square;; fill: none" transform="matrix(1,0,0,1,17,199)" ><path d="M 9 1 L 11 1 L 11 2 L 12 2 L 12 4 L 13 4 L 13 6 L 14 6 L 14 8 L 15 8 L 15 10 L 16 10 L 16 11 L 17 11 L 17 15 L 16 15 L 16 16 L 17 16 L 17 18 L 20 18 L 20 28 L 19 28 L 19 29 L 18 29 L 18 30 L 17 30 L 17 31 L 16 31 L 16 32 L 15 32 L 15 33 L 9 33 L 9 32 L 7 32 L 7 31 L 6 31 L 6 30 L 5 30 L 5 25 L 4 25 L 4 24 L 3 24 L 3 23 L 2 23 L 2 21 L 1 21 L 1 12 L 0 12 L 0 4 L 1 4 L 1 2 L 2 2 L 2 1 L 4 1 L 4 0 L 9 0 Z "/></g><g style="stroke-width: 1.0;stroke: rgb(255,0,0);stroke-opacity: 1.0;stroke-linecap: square;; fill: none" transform="matrix(1,0,0,1,89,199)" ><path d="M 14 1 L 15 1 L 15 2 L 17 2 L 17 3 L 18 3 L 18 4 L 20 4 L 20 5 L 21 5 L 21 6 L 22 6 L 22 7 L 23 7 L 23 8 L 24 8 L 24 9 L 25 9 L 25 10 L 26 10 L 26 12 L 27 12 L 27 15 L 28 15 L 28 18 L 29 18 L 29 21 L 28 21 L 28 23 L 27 23 L 27 25 L 26 25 L 26 26 L 25 26 L 25 27 L 24 27 L 24 28 L 23 28 L 23 29 L 21 29 L 21 30 L 18 30 L 18 31 L 17 31 L 17 30 L 14 30 L 14 29 L 11 29 L 11 28 L 10 28 L 10 27 L 8 27 L 8 25 L 7 25 L 7 24 L 6 24 L 6 22 L 5 22 L 5 21 L 4 21 L 4 20 L 3 20 L 3 19 L 2 19 L 2 17 L 1 17 L 1 15 L 0 15 L 0 8 L 1 8 L 1 6 L 2 6 L 2 4 L 3 4 L 3 3 L 5 3 L 5 2 L 8 2 L 8 1 L 10 1 L 10 0 L 14 0 Z "/></g><g style="stroke-width: 1.0;stroke: rgb(255,0,0);stroke-opacity: 1.0;stroke-linecap: square;; fill: none" transform="matrix(1,0,0,1,51,203)" ><path d="M 14 1 L 15 1 L 15 2 L 17 2 L 17 3 L 18 3 L 18 4 L 19 4 L 19 5 L 20 5 L 20 7 L 21 7 L 21 8 L 22 8 L 22 10 L 23 10 L 23 21 L 22 21 L 22 24 L 21 24 L 21 26 L 20 26 L 20 27 L 19 27 L 19 28 L 18 28 L 18 29 L 15 29 L 15 30 L 11 30 L 11 29 L 7 29 L 7 28 L 6 28 L 6 26 L 5 26 L 5 24 L 4 24 L 4 23 L 3 23 L 3 22 L 2 22 L 2 20 L 1 20 L 1 18 L 0 18 L 0 7 L 1 7 L 1 5 L 2 5 L 2 4 L 3 4 L 3 3 L 4 3 L 4 2 L 5 2 L 5 1 L 9 1 L 9 0 L 14 0 Z "/></g><g style="stroke-width: 1.0;stroke: rgb(255,0,0);stroke-opacity: 1.0;stroke-linecap: square;; fill: none" transform="matrix(1,0,0,1,221,214)" ><path d="M 15 1 L 19 1 L 19 2 L 21 2 L 21 3 L 22 3 L 22 4 L 23 4 L 23 6 L 24 6 L 24 7 L 25 7 L 25 9 L 26 9 L 26 11 L 27 11 L 27 19 L 26 19 L 26 21 L 25 21 L 25 23 L 24 23 L 24 24 L 22 24 L 22 25 L 19 25 L 19 26 L 10 26 L 10 25 L 7 25 L 7 24 L 5 24 L 5 23 L 4 23 L 4 22 L 2 22 L 2 21 L 1 21 L 1 19 L 0 19 L 0 9 L 1 9 L 1 8 L 2 8 L 2 6 L 3 6 L 3 5 L 5 5 L 5 4 L 6 4 L 6 3 L 7 3 L 7 2 L 9 2 L 9 1 L 12 1 L 12 0 L 15 0 Z "/></g><g style="stroke-width: 1.0;stroke: rgb(255,0,0);stroke-opacity: 1.0;stroke-linecap: square;; fill: none" transform="matrix(1,0,0,1,161,217)" ><path d="M 15 1 L 20 1 L 20 2 L 30 2 L 30 3 L 33 3 L 33 4 L 34 4 L 34 5 L 35 5 L 35 6 L 38 6 L 38 7 L 39 7 L 39 8 L 40 8 L 40 9 L 41 9 L 41 12 L 40 12 L 40 15 L 39 15 L 39 19 L 38 19 L 38 20 L 37 20 L 37 22 L 36 22 L 36 23 L 35 23 L 35 24 L 33 24 L 33 25 L 29 25 L 29 26 L 27 26 L 27 27 L 20 27 L 20 26 L 14 26 L 14 25 L 8 25 L 8 24 L 6 24 L 6 23 L 5 23 L 5 22 L 4 22 L 4 20 L 3 20 L 3 18 L 2 18 L 2 16 L 1 16 L 1 14 L 0 14 L 0 8 L 1 8 L 1 5 L 2 5 L 2 4 L 3 4 L 3 3 L 4 3 L 4 2 L 5 2 L 5 1 L 7 1 L 7 0 L 15 0 Z "/></g><g style="stroke-width: 1.0;stroke: rgb(255,0,0);stroke-opacity: 1.0;stroke-linecap: square;; fill: none" transform="matrix(1,0,0,1,130,223)" ><path d="M 11 1 L 12 1 L 12 2 L 14 2 L 14 3 L 15 3 L 15 4 L 16 4 L 16 8 L 17 8 L 17 13 L 16 13 L 16 16 L 15 16 L 15 17 L 14 17 L 14 19 L 13 19 L 13 21 L 11 21 L 11 22 L 8 22 L 8 21 L 5 21 L 5 20 L 4 20 L 4 19 L 3 19 L 3 18 L 2 18 L 2 16 L 1 16 L 1 14 L 0 14 L 0 11 L 1 11 L 1 4 L 2 4 L 2 3 L 3 3 L 3 2 L 4 2 L 4 1 L 6 1 L 6 0 L 11 0 Z "/></g><g style="stroke-width: 1.0;stroke: rgb(255,0,0);stroke-opacity: 1.0;stroke-linecap: square;; fill: none" transform="matrix(1,0,0,1,39,232)" ><path d="M 11 1 L 13 1 L 13 3 L 14 3 L 14 4 L 15 4 L 15 11 L 14 11 L 14 12 L 13 12 L 13 15 L 12 15 L 12 16 L 11 16 L 11 17 L 10 17 L 10 18 L 8 18 L 8 19 L 6 19 L 6 18 L 4 18 L 4 17 L 3 17 L 3 16 L 2 16 L 2 15 L 1 15 L 1 13 L 0 13 L 0 8 L 1 8 L 1 5 L 2 5 L 2 3 L 3 3 L 3 1 L 5 1 L 5 0 L 11 0 Z "/></g></svg>
